<svg id="Ebene_1" data-name="Ebene 1" xmlns="http://www.w3.org/2000/svg" viewBox="0 0 62.31 29.41"><defs><style>.cls-1{fill:#1a1a18;}</style></defs><title>gluckgluck_logo_pt1</title><path class="cls-1" d="M21,28.59h-.23c-.19-1.36-1.51-2.35-2.16-2.84a9.65,9.65,0,0,1-6.88,2.76C5.22,28.51.6,22.58.6,15.69c0-9.49,6-13.62,11-13.62,2.92,0,4.2.72,5.19.72.68,0,1.32-.3,1.28-1.25l.23-.07,3.48,8.58-.23.12c-3.63-5.87-6.31-7.76-9.95-7.76-4.38,0-8,3.56-8,12.75,0,8.36,3.14,12.9,8.78,12.9a9,9,0,0,0,6-2.65V19c0-1.63-.34-1.85-1.93-1.85h0v-.3H17c.87,0,1.48.11,2.65.11s1.78-.11,2.65-.11h.6v.3h0C21.3,17.13,21,17.35,21,19Z"/><path class="cls-1" d="M31.77,28h0v.26h-.53c-.94,0-1.55-.11-2.8-.11s-1.85.11-2.8.11h-.53V28h0c1.74,0,2-.27,2-1.9V4.57c0-1.63-.31-1.85-2-1.85h0V2.45h.23C27,2.45,29.2,1.69,29.5.82h.23V26.05C29.73,27.68,30,28,31.77,28Z"/><path class="cls-1" d="M51.48,28.21c-.94,0-1.55-.07-2.8-.07-.6,0-.94.07-1.25.07V25.64l-3.82,1.55a13.79,13.79,0,0,1-4.8,1.32c-1.44,0-2.35-.68-2.35-2.64V13.12c0-1.63-.3-1.86-2-1.86h0V11h.23c1.63,0,3.82-.76,4.12-1.63H39V26c0,1.25.42,1.82,1.33,1.82a10.25,10.25,0,0,0,3.21-.91l3.93-1.59V13.12c0-1.63-.3-1.86-2-1.86h0V11h.23c1.63,0,3.82-.76,4.12-1.63h.23V26.05c0,1.63.3,1.9,2,1.9h0v.26Z"/><path class="cls-1" d="M62.3,27.41c-2.55-.93-4.5-4.24-4.5-9.64,0-4.32,1.5-7.59,4.5-8V9.41c-3.87.41-7.38,3.94-7.38,9.84,0,5.44,3.58,8.92,7.38,9.23Z"/></svg>