<svg id="Ebene_1" data-name="Ebene 1" xmlns="http://www.w3.org/2000/svg" viewBox="0 0 31.16 29.41"><defs><style>.cls-1{fill:#1a1a18;}</style></defs><title>gluckgluck_logo_pt2</title><path class="cls-1" d="M-.28,10.18a3.12,3.12,0,0,1,1.34-.3,2.88,2.88,0,0,1,3.14,3c0,1-.23,1.59-.23,2.38A1.66,1.66,0,0,0,5.75,17a1.86,1.86,0,0,0,1.78-2c0-2.95-3.37-5.56-6.77-5.56a8.93,8.93,0,0,0-1,.07Z"/><path class="cls-1" d="M2.23,26.15a4.18,4.18,0,0,1-2.51-.81V28.6h.09c4,0,6.77-2.8,7.94-7l-.34-.12C6.54,24.37,4.65,26.15,2.23,26.15Z"/><path class="cls-1" d="M21.45,16.35c.53,0,.87,0,1.81,0l4.47,9.23c.72,1.52,1.43,2.42,3,2.42h.12v.35H29.62c-1.06,0-2-.12-3.29-.12s-2.2.12-3.26.12H21.68V28h.18c.91,0,1.37-.3,1.37-.87a3,3,0,0,0-.38-1.17l-3.71-7.26L16.49,21.5v3.85c0,1.52.38,2.61,2,2.61h.15v.35H17.36c-1.17,0-2-.12-3.29-.12s-2.15.12-3.33.12H9.46V28h.19c1.59,0,2-1.09,2-2.61V5.53c0-1.51-.37-2.64-2-2.64H9.46V2.55h1.17c1.89,0,4.92-.57,5.6-1.56h.26v19.9L19,18.24,18,16.31c1.25,0,2,0,2.92,0l1.93-2a4.62,4.62,0,0,0,1.58-2.76c0-1-.64-1.44-1.85-1.44h-.26V9.77H23c.87,0,2,.11,3.25.11s2.2-.11,3.14-.11h.8v.34h-.12c-2.19,0-5,2.46-6.84,4.39Z"/></svg>