<svg id="Ebene_1" data-name="Ebene 1" xmlns="http://www.w3.org/2000/svg" viewBox="0 0 192.97 30.97"><defs><style>.cls-1{fill:#1a1a18;}</style></defs><title>gluckgluck_logo</title><path class="cls-1" d="M22.09,29.59h-.26c-.23-1.36-1.71-2.27-2.77-2.73a9.59,9.59,0,0,1-6.69,2.65c-6.28,0-11.08-5.63-11.08-12.86,0-9.72,6.46-13.58,11.34-13.58,2.8,0,4.24.72,5.3.72.87,0,1.36-.3,1.32-1.21l.23-.07,3.29,8.88-.26.12c-3.56-6.09-6.32-8.1-9.88-8.1-4.19,0-7.71,3.41-7.71,12.71,0,8.4,3,12.86,8.28,12.86a8.45,8.45,0,0,0,5.68-2.46V20.21c0-1.67-.46-2.08-2-2.08h-.08v-.31h.84c.94,0,1.7.12,2.87.12s1.89-.12,2.84-.12h.83v.31H24.1c-1.56,0-2,.41-2,2.08Z"/><path class="cls-1" d="M33.29,29h.07v.26h-.71c-1,0-1.67-.11-2.92-.11s-1.93.11-2.95.11H26.1V29h0c1.74,0,2-.5,2-2.09V5.8c0-1.63-.3-2.08-2-2.08h0V3.45h.45c1.67,0,4.09-.72,4.47-1.63h.26v25C31.28,28.45,31.59,29,33.29,29Z"/><path class="cls-1" d="M53.15,29.21c-1,0-1.67-.07-2.92-.07-.71,0-1.13.07-1.55.07v-2.5l-3.89,1.56a14.15,14.15,0,0,1-4.69,1.24c-1.48,0-2.39-.72-2.39-2.72V14.27c0-1.59-.34-2-2-2H35.6v-.31h.45c1.7,0,4.12-.68,4.5-1.58h.23V26.86c0,1.22.45,1.75,1.32,1.75a9.13,9.13,0,0,0,3-.84l3.59-1.43V14.27c0-1.59-.34-2-2-2h-.07v-.31H47c1.7,0,4.12-.68,4.5-1.58h.23V26.86c0,1.59.34,2.09,2,2.09h.08v.26Z"/><path class="cls-1" d="M56.48,20.21c0-6.28,4.12-9.84,8.36-9.84,3.59,0,6.54,2.8,6.54,5.11a1.19,1.19,0,0,1-1.21,1.29,1.23,1.23,0,0,1-1.25-1.25c-.07-2.12-.64-4.81-4-4.81-3.14,0-5,3.1-5,7.91,0,6.32,2.65,9.65,5.86,9.65,2.38,0,4.39-1.37,5.52-4.7l.27.08c-1.17,3.78-3.67,5.86-7.11,5.86C60.41,29.51,56.48,25.92,56.48,20.21Z"/><path class="cls-1" d="M84.73,17l5.9,10.06c.8,1.4,1.33,1.9,2.69,1.9h0v.26h-.65c-.68,0-1.58-.11-2.87-.11s-2.08.11-2.8.11H86V29h.07c1,0,1.59-.19,1.59-.76a1.79,1.79,0,0,0-.3-.76l-4.8-8.21-3.26,3.33v4.31c0,1.59.31,2.09,2,2.09h.07v.26h-.71c-1,0-1.67-.11-2.92-.11s-1.93.11-3,.11h-.68V29h0c1.74,0,2-.5,2-2.09V5.8c0-1.63-.3-2.08-2-2.08h0V3.45h.46c1.66,0,4.08-.72,4.46-1.63h.26V22.06l3.07-3.14L81.25,17c1,0,2,0,3,0l2.5-2.65A3.47,3.47,0,0,0,88,12.19c0-.83-.56-1.25-1.81-1.25h-.12v-.26h.53c.95,0,1.59.11,2.84.11s1.89-.11,2.84-.11h.6v.26h-.07c-2,0-4.16,1.89-5.75,3.56Z"/><path class="cls-1" d="M116.81,29.55h-.34c-.26-1.4-2.35-2-4.65-2.34a9.54,9.54,0,0,1-6.21,2.34c-5.71,0-11.12-4.77-11.12-13,0-10.44,8-13.51,12.52-13.51,2.57,0,4.47.72,5.64.72.94,0,1.44-.26,1.4-1.1l.3-.07,2.73,9.8-.31.15c-3.7-7-6.43-9.08-9.76-9.08-3.51,0-6.69,2.87-6.69,12.48,0,8.51,2.42,12.75,6.73,12.75a7,7,0,0,0,4.5-1.82V21c0-1.85-.72-2.79-2.19-2.79h-.15v-.38h1.55c1.13,0,2.23.11,3.4.11s2.31-.11,3.44-.11h1.52v.38H119c-1.47,0-2.19.94-2.19,2.79Z"/><path class="cls-1" d="M129.22,28.87h.15v.34h-1.29c-1.17,0-2-.11-3.29-.11s-2.15.11-3.33.11h-1.28v-.34h.19c1.59,0,2-1.1,2-2.61V6.44c0-1.51-.37-2.65-2-2.65h-.19V3.45h1.17c1.89,0,4.92-.57,5.6-1.55h.26V26.26C127.21,27.77,127.59,28.87,129.22,28.87Z"/><path class="cls-1" d="M149.42,29.21c-1.21,0-2.08-.11-3.33-.11-1,0-1.63.11-2.46.11V26.94l-4.09,1.51a11.79,11.79,0,0,1-4.23,1.06c-1.67,0-2.65-.9-2.65-2.91V14.72c0-1.51-.34-2.65-2-2.65h-.15v-.34h1.17c1.86,0,4.92-.56,5.6-1.55h.27V26.49c0,1.13.49,1.59,1.28,1.59a8,8,0,0,0,2.35-.65l2.42-.91V14.72c0-1.51-.34-2.65-2-2.65h-.15v-.34h1.17c1.86,0,4.92-.56,5.6-1.55h.27v16c0,1.51.34,2.65,2,2.65h.16v.34Z"/><path class="cls-1" d="M152.48,20.13c0-6.28,4.62-9.76,9.08-9.76,3.4,0,6.77,2.61,6.77,5.56a1.86,1.86,0,0,1-1.78,2,1.66,1.66,0,0,1-1.78-1.74c0-.8.23-1.4.23-2.39a2.87,2.87,0,0,0-3.14-3c-2.19,0-4.16,2-4.16,7.38,0,6,2.31,8.88,5.34,8.88,2.42,0,4.31-1.77,5.18-4.61l.34.11c-1.18,4.16-4,7-7.95,7S152.48,25.84,152.48,20.13Z"/><path class="cls-1" d="M182.25,17.26c.53,0,.87,0,1.82,0l4.46,9.23c.72,1.51,1.44,2.42,3,2.42h.11v.34h-1.25c-1.06,0-2-.11-3.29-.11s-2.19.11-3.25.11h-1.4v-.34h.19c.91,0,1.36-.3,1.36-.87a2.78,2.78,0,0,0-.38-1.17l-3.71-7.27L177.3,22.4v3.86c0,1.51.37,2.61,2,2.61h.15v.34h-1.28c-1.18,0-2-.11-3.3-.11s-2.15.11-3.32.11h-1.29v-.34h.19c1.59,0,2-1.1,2-2.61V6.44c0-1.51-.38-2.65-2-2.65h-.19V3.45h1.17c1.89,0,4.92-.57,5.6-1.55h.27V21.8l2.49-2.65-.94-1.93c1.24,0,2,0,2.91,0l1.93-2.05a4.57,4.57,0,0,0,1.59-2.76c0-.94-.65-1.43-1.86-1.43h-.26v-.34h.64c.87,0,2,.11,3.25.11s2.2-.11,3.14-.11h.8V11h-.12c-2.19,0-5,2.46-6.84,4.38Z"/></svg>